<svg xmlns="http://www.w3.org/2000/svg" width="142" height="25" fill="none">
  <g fill="#000" clip-path="url(#a)">
    <path d="M7.833 1.918c-.4.018-.876.025-1.427.025H0c.101.187.184.393.235.624.05.231.088.612.101 1.15.02.536.026 1.367.026 2.491v9.961c0 1.075-.013 1.88-.039 2.424-.025.543-.063.93-.101 1.161A1.98 1.98 0 0 1 0 20.38h2.645c-.153-.275-.26-.656-.311-1.15-.05-.493-.076-1.517-.076-3.066v-4.19h3.14c.78 0 1.356.037 1.737.1.38.068.698.162.958.28l-.235-2.273c-.349.156-1.211.231-2.594.231H2.258V7.832c0-.662.006-1.268.025-1.811.013-1.05.045-1.843.095-2.398h3.095c1.351 0 2.264.025 2.746.075.482.05.838.15 1.066.306l-.47-2.224c-.26.069-.59.113-.982.125v.013ZM21.314 18.612c-.501.075-1.389.112-2.67.112h-3.99a41.97 41.97 0 0 1-.056-1.649 297.917 297.917 0 0 1-.026-4.659v-.687h3.71c.844 0 1.446.019 1.802.063.355.043.634.125.843.243l-.21-2.198c-.348.156-1.204.231-2.568.231h-3.577v-.05c0-1.973.007-3.529.026-4.659.012-.712.031-1.28.057-1.724h3.596c1.363 0 2.283.025 2.765.075.476.05.824.15 1.053.306l-.47-2.223c-.26.069-.59.112-.995.125-.406.019-.888.025-1.44.025h-6.85c.102.187.178.393.222.624.045.231.077.619.102 1.162.025.543.038 1.374.038 2.48v9.96c0 1.075-.013 1.88-.038 2.424-.025.543-.063.93-.114 1.162-.051.23-.127.437-.235.624h7.389c.551 0 1.014.006 1.389.025.374.019.684.069.945.156l.469-2.323-.026.025c-.26.156-.64.268-1.141.343v.007ZM34.783 18.612c-.501.075-1.39.112-2.67.112h-3.99c-.025-.43-.044-.968-.057-1.649a298.154 298.154 0 0 1-.025-4.659v-.687h3.71c.844 0 1.446.019 1.801.063.355.043.635.125.844.243l-.21-2.198c-.348.156-1.205.231-2.568.231H28.04v-.05c0-1.973.006-3.529.025-4.659.013-.712.032-1.28.057-1.724h3.596c1.364 0 2.29.025 2.766.075.475.05.824.15 1.052.306l-.469-2.223c-.26.069-.59.112-.996.125-.406.019-.888.025-1.44.025h-6.849c.102.187.178.393.222.624.044.231.076.619.102 1.162.025.543.038 1.374.038 2.48v9.96c0 1.075-.013 1.88-.038 2.424-.026.543-.064.93-.114 1.162a2.17 2.17 0 0 1-.235.624h7.388c.552 0 1.015.006 1.39.025.373.019.684.069.944.156l.47-2.323-.026.025c-.26.156-.64.268-1.141.343v.007ZM48.098 18.624c-.508.068-1.377.1-2.607.1h-3.843c-.051-.45-.089-1-.108-1.674a102.38 102.38 0 0 1-.038-3.104V6.158c0-1.074.013-1.88.038-2.43.025-.543.063-.93.114-1.161a2.17 2.17 0 0 1 .235-.625h-2.645c.14.275.235.656.285 1.15.051.493.077 1.517.077 3.066v10.523c0 .868-.013 1.555-.038 2.055-.026.5-.064.862-.115 1.074-.05.213-.126.406-.234.575h7.312c.552 0 1.009.006 1.364.025.355.018.672.069.945.156l.47-2.298-.077.025c-.241.156-.622.262-1.129.33h-.006ZM122.786 12.39V6.109c0-1.074.013-1.874.038-2.398.025-.525.063-.906.114-1.137a2.17 2.17 0 0 1 .235-.624h-2.569c.102.187.184.393.235.624.051.231.089.612.114 1.137.025.53.038 1.33.038 2.398v11.298L110.615 1.942h-2.67c.14.219.241.587.311 1.1.07.512.114 1.367.127 2.566.019 1.2.025 2.636.025 4.303v6.333c0 1.056-.012 1.849-.038 2.373-.025.525-.063.906-.114 1.137a2.171 2.171 0 0 1-.235.625h2.569a2.397 2.397 0 0 1-.235-.625c-.05-.231-.088-.606-.114-1.124a54.562 54.562 0 0 1-.038-2.386V4.59l10.737 15.795h2.309c-.209-.344-.336-1.012-.387-2.005-.051-.993-.076-2.991-.076-5.99ZM142 20.385a4.22 4.22 0 0 1-.494-.856c-.159-.35-.305-.718-.438-1.112l-3.038-8.094c-.33-.849-.621-1.623-.881-2.323s-.501-1.336-.73-1.917a136.485 136.485 0 0 1-1.141-3.03 5.095 5.095 0 0 1-.286-1.186l-2.359.181c-.019.275-.089.6-.222.968-.127.375-.482 1.287-1.053 2.736-.222.58-.482 1.249-.78 2.005-.292.755-.621 1.61-.983 2.566l-3.063 8.175s-.032.044-.038.075c-.006.038-.019.063-.038.075-.292.768-.571 1.343-.831 1.737h2.752c-.101-.275-.101-.675 0-1.212.102-.537.387-1.436.857-2.692l.602-1.636h7.871l.602 1.636c.47 1.243.749 2.13.844 2.667.095.537.089.95-.013 1.237H142Zm-11.58-7.101.792-2.143c.051-.168.108-.337.172-.5.063-.162.114-.324.171-.499.691-1.805 1.211-3.266 1.566-4.378.254-.812.463-1.63.641-2.448.146.693.311 1.368.514 2.005.291.918.83 2.442 1.611 4.571l.494 1.306.768 2.092h-6.723l-.006-.006ZM63.25 12.047c.076-.287.076-.45.05-.73-3.659 1.298-6.31 3.515-7.362 6.213.158.113.45.175.646.175.977-2.43 3.374-4.428 6.666-5.658Z"/>
    <path d="M107.164 8.993a37.56 37.56 0 0 1-1.142 1.774l-.012.012c-4.592 6.446-7.845 9.318-10.553 9.318-1.383 0-2.03-.787-2.03-2.473 0-1.773.679-3.915 2.067-6.551 2.83-.793 5.588-2.148 7.408-3.641 1.567-1.255 2.429-2.56 2.429-3.685 0-1-.64-1.574-1.763-1.574-2.569 0-6.114 2.68-8.613 6.508-.983 1.499-2.111 3.691-2.48 6.158-.392.63-.887 1.399-1.445 2.217l-.958 1.399c-2.239 3.248-3.723 4.578-5.143 4.578-1.015 0-1.592-.731-1.592-2.005 0-2.248 1.547-4.778 3.342-7.7.304-.494.615-1.006.926-1.524 0 0 4.395-7.139 6.342-10.18C94.556.662 95.501 0 95.501 0H82.994c-6.558 0-10.686 2.105-12.411 5.265a5.112 5.112 0 0 0-.476 3.572s.133.031.298.031c.216 0 .31-.03.31-.03-.151-.644-.36-2.13.42-3.41C73.1 2.222 76.696.655 82.995.655h2.238c-2.797 2.323-5.46 5.633-8.378 9.387h-5.556c-.754 0-3.145.012-3.653.012-1.02 0-1.192-.874-1.37-1.611-.253-1.037-.33-1.28-.76-2.167a8.1 8.1 0 0 0-3.039-3.385c-1.331-.837-2.904-1.25-4.718-1.25s-3.387.425-4.719 1.268a8.197 8.197 0 0 0-3.031 3.385c-.691 1.412-1.04 2.986-1.04 4.728 0 1.742.349 3.322 1.053 4.803.684 1.455 1.636 2.673 2.961 3.503.831.525 2.366 1.35 2.766 2.786.646 1.823 2.27 2.898 4.566 2.898 5.771 0 11.118-6.877 16.293-13.528 2.91-3.74 6.43-8.212 9.481-10.817l-6.786 9.918c-2.835 4.222-6.209 9.724-6.209 11.972 0 1.024.653 1.137.907 1.118 1.332 0 3.685-3.116 7.573-8.275C84.484 11.548 88.899 5.777 93.3.668l-6.906 10.599-.203.337c-1.89 3.135-3.679 6.095-3.679 9.006 0 1.942.907 3.097 2.43 3.097 2.137 0 3.862-2.26 5.733-4.996l1.02-1.486c.248-.356.476-.712.68-1.056 0 .088-.007.175-.007.262 0 2.767 1.135 4.416 3.044 4.416 3.095 0 6.488-2.935 11.333-9.818l.14-.2c.101-.143.197-.287.292-.424 0 0 .088-.169.088-.7 0-.474-.088-.693-.088-.693l-.013-.019Zm-10.566.225c2.448-3.953 5.074-6.314 7.027-6.314.907 0 .907.512.907.68 0 .775-.736 1.868-2.01 2.999-1.757 1.53-4.224 2.891-6.54 3.634l.616-.999Zm-42.48 8.75c-1.02-.725-1.8-1.699-2.346-2.923-.545-1.224-.818-2.58-.818-4.06 0-1.48.266-2.779.805-3.947.533-1.167 1.32-2.08 2.347-2.747 1.027-.662 2.245-1 3.647-1 1.401 0 2.638.331 3.659 1 1.021.662 1.801 1.58 2.334 2.747.488 1.068.76 2.23.786 3.579.013.556.032 1.224-.146 2.217-.14.774-.342 1.518-.653 2.211-.545 1.224-1.325 2.198-2.346 2.923-1.022.724-2.233 1.087-3.634 1.087-.064 0-.996-.038-1.846-.263-.881-.23-1.674-.75-1.788-.824Zm21.944-6.939c-5.035 6.545-10.249 13.315-15.753 13.315-2.125 0-3.73-.974-4.028-2.76-.07-.412.152-.95 1.199-.887.063 0 .171.019.266.019 1.814 0 3.387-.45 4.706-1.343a8.672 8.672 0 0 0 3.032-3.566c.532-1.13.862-2.33.989-3.597.089-.737.266-.956.672-1.243.444-.319 2.582-.275 4.135-.275h5.03l-.254.331.006.006Zm4.75 4.24c-3.386 4.491-5.828 7.732-6.83 7.732-.152 0-.197-.024-.197-.224 0-1.7 2.981-6.165 6.749-11.817L87.427.656h5.049c-4.795 5.502-8.6 10.548-11.67 14.614h.007Z"/>
  </g>
  <defs>
    <clipPath id="a">
      <path fill="#fff" d="M0 0h142v25H0z"/>
    </clipPath>
  </defs>
</svg>
