<svg width="24" height="20" viewBox="0 0 24 20" fill="none" xmlns="http://www.w3.org/2000/svg">
<path d="M24.0002 10.0003C24.0002 9.56974 23.6465 9.22029 23.2108 9.22029L2.71869 9.22029L10.8167 1.35144C10.8941 1.28046 10.9562 1.19487 10.9995 1.09975C11.0427 1.00463 11.0662 0.9019 11.0686 0.797641C11.071 0.693383 11.0522 0.58971 11.0133 0.492754C10.9745 0.395799 10.9163 0.307528 10.8423 0.233164C10.7683 0.1588 10.68 0.0998514 10.5825 0.0598048C10.4851 0.0197581 10.3805 -0.000573775 10.2749 1.18508e-05C10.1694 0.000597477 10.065 0.0220886 9.96803 0.0632142C9.87104 0.10434 9.78337 0.164265 9.71022 0.239445L0.244186 9.43682L0.227133 9.45305C0.145095 9.53511 0.0825797 9.63419 0.044126 9.7431C0.00567236 9.85201 -0.00775499 9.96801 0.00481888 10.0827C0.0246128 10.2703 0.112838 10.4444 0.253028 10.5725L9.71023 19.7605C9.78337 19.8357 9.87104 19.8957 9.96803 19.9368C10.065 19.9779 10.1694 19.9994 10.2749 20C10.3805 20.0006 10.4851 19.9802 10.5825 19.9402C10.68 19.9001 10.7683 19.8412 10.8423 19.7668C10.9163 19.6925 10.9745 19.6042 11.0133 19.5072C11.0522 19.4103 11.071 19.3066 11.0686 19.2024C11.0662 19.0981 11.0427 18.9954 10.9995 18.9002C10.9562 18.8051 10.8941 18.7195 10.8167 18.6485L2.71869 10.7797L23.2108 10.7797C23.6465 10.7797 24.0002 10.4315 24.0002 10.0003Z" fill="#121313"></path>
</svg>
