<svg width="24" height="20" viewBox="0 0 24 20" fill="none" xmlns="http://www.w3.org/2000/svg">
<path d="M1.65702e-05 9.99969C1.65137e-05 10.4303 0.353698 10.7797 0.789483 10.7797L21.2816 10.7797L13.1835 18.6486C13.1062 18.7195 13.044 18.8051 13.0008 18.9002C12.9575 18.9954 12.934 19.0981 12.9316 19.2024C12.9292 19.3066 12.948 19.4103 12.9869 19.5072C13.0258 19.6042 13.0839 19.6925 13.1579 19.7668C13.2319 19.8412 13.3203 19.9001 13.4177 19.9402C13.5152 19.9802 13.6198 20.0006 13.7253 20C13.8309 19.9994 13.9352 19.9779 14.0322 19.9368C14.1292 19.8957 14.2169 19.8357 14.29 19.7606L23.7561 10.5632L23.7731 10.547C23.8552 10.4649 23.9177 10.3658 23.9561 10.2569C23.9946 10.148 24.008 10.032 23.9954 9.91732C23.9756 9.72968 23.8874 9.55556 23.7472 9.42747L14.29 0.239453C14.2169 0.164271 14.1292 0.104346 14.0322 0.0632197C13.9352 0.0220934 13.8309 0.000603296 13.7253 1.77261e-05C13.6198 -0.000567844 13.5152 0.0197645 13.4177 0.0598112C13.3203 0.0998578 13.2319 0.158806 13.1579 0.23317C13.0839 0.307534 13.0258 0.395806 12.9869 0.492762C12.948 0.589716 12.9292 0.693388 12.9316 0.797648C12.934 0.901906 12.9575 1.00464 13.0008 1.09976C13.0441 1.19488 13.1062 1.28046 13.1835 1.35145L21.2816 9.22029L0.789484 9.22029C0.353698 9.22029 1.66267e-05 9.56849 1.65702e-05 9.99969Z" fill="#121313"></path>
</svg>
